PathFileType	4	(X/Y/Z)	49_2_rein_28_p1_0-297.trc
DataRate	CameraRate	NumFrames	NumMarkers	Units	OrigDataRate	OrigDataStartFrame	OrigNumFrames
59.0	59.0	7	27	m	59.0	0	298
Frame#	Time	RHip			RKnee			RAnkle			RBigToe			RSmallToe			RHeel			LHip			LKnee			LAnkle			LBigToe			LSmallToe			LHeel			Neck			Head			Nose			RShoulder			RElbow			RWrist			RThumb			RIndex			RPinky			LShoulder			LElbow			LWrist			LThumb			LIndex			LPinky			
		X1	Y1	Z1	X2	Y2	Z2	X3	Y3	Z3	X4	Y4	Z4	X5	Y5	Z5	X6	Y6	Z6	X7	Y7	Z7	X8	Y8	Z8	X9	Y9	Z9	X10	Y10	Z10	X11	Y11	Z11	X12	Y12	Z12	X13	Y13	Z13	X14	Y14	Z14	X15	Y15	Z15	X16	Y16	Z16	X17	Y17	Z17	X18	Y18	Z18	X19	Y19	Z19	X20	Y20	Z20	X21	Y21	Z21	X22	Y22	Z22	X23	Y23	Z23	X24	Y24	Z24	X25	Y25	Z25	X26	Y26	Z26	X27	Y27	Z27	
0	0.0	0.3841387413231647	0.6201157059739716	0.7261291500372554	0.3622130982368119	0.8319139981657386	1.1832811491924755	0.3265712943413363	1.0505419240098899	1.5942684075287223	0.30345304499409115	0.8322977551448391	1.6659678985407902	0.376207683241178	0.8444289045212138	1.66279023293889	0.3190453286727207	1.1347715157705416	1.6291968154108745	0.1658393880522324	0.6721499970443872	0.7297205962187371	0.18427789210333198	0.8302758557287254	1.1768277829154017	0.18385134056463534	1.0311799347930017	1.5791810995364384	0.1598963664128349	0.8352060245703233	1.652130701677865	0.11271875970202207	0.8997609624155988	1.6567471269828082	0.19666355801813593	1.1391679647305017	1.6414499541070982	0.2807392648721832	0.45162955327598964	0.24693215537705837	0.28521825870800227	0.3237548273574135	0.04081793806881167	0.276890323814872	0.3306691488401955	0.17649295966030765	0.4430098830526293	0.4958166492074126	0.30216645099977735	0.47809052665478324	0.5219465212498778	0.5647184187522624	0.3365023987799534	0.47835212619781503	0.7818914580799179	0.2251222268836838	0.48968791293283576	0.8368221193448441	0.22797232215393418	0.5011158005662827	0.881135806872631	0.2533927929516891	0.5166205611187147	0.8812572851338379	0.12013882034846478	0.5096865201939953	0.28059410769460746	0.08705270676750798	0.5268473826515709	0.5301965371061408	0.17932607896410818	0.48996437163915413	0.7529394537273648	0.23025115491687223	0.47799919584656164	0.8117274700147055	0.23662186110766192	0.4963027669713055	0.8691778957946447	0.2388800928748607	0.49862535669184094	0.8660319033439429
1	0.01694915254237288	0.38418812138335584	0.6200601854147128	0.7261519610501569	0.36119064752278196	0.8290728757812278	1.1792502980210295	0.3311570263065985	1.0664962731222078	1.5970864811376004	0.2997650266365968	0.8495080435163976	1.6696797004312305	0.3728642660278881	0.8616937821463739	1.6665160223479307	0.31974977137862426	1.1513716110507772	1.6322934836317669	0.16537832577903683	0.6690550232320565	0.7256433900410498	0.18423166109717068	0.8302558282792915	1.1767112514629567	0.1859268449051253	1.045205159160289	1.5815904113229322	0.1564003068518971	0.8206666905444097	1.649306423984915	0.11238262420802272	0.9007002294685708	1.6526041011965316	0.20347032267474735	1.1666067978964383	1.6439193671513548	0.28421496392362805	0.43990640109510376	0.25304902016802616	0.2816927128767001	0.32321624665481685	0.041061026423046584	0.2735804170579639	0.32013605729098854	0.17953814846581584	0.4431024448202573	0.4956301284621508	0.302127421651155	0.4779987405668217	0.5219845164243866	0.5647879680887723	0.3364867728927137	0.4784152605714016	0.7819037088274341	0.23289899545297185	0.4788035402284856	0.8416714925039108	0.22805887841075684	0.5008867682336637	0.8812769513172899	0.2533256973335769	0.5159888281789908	0.8811294283501729	0.11992602261125775	0.5103172244659302	0.2837874799353933	0.087228953495043	0.5289931819933436	0.5333142496237652	0.17930555567542084	0.4896977006577127	0.7530549380272021	0.23171328444670955	0.4836025861774582	0.8183759474969341	0.2365575297344988	0.4972402700034447	0.8692822772788795	0.2394949572270884	0.49790809249444323	0.8621280824765222
2	0.03389830508474576	0.38377495262402705	0.6209926858999484	0.7295881843747523	0.3612918435812555	0.8289679300244203	1.1791786805476814	0.33123007501621143	1.0668262650674567	1.597238544075473	0.299805987394029	0.8495735170998758	1.6697116286509863	0.3731678875584951	0.8625605162709643	1.6666081868637252	0.3199690586659806	1.1520377363639638	1.6325188864057243	0.16905353008263077	0.682491242340414	0.7244706581128162	0.184343971627386	0.8297043473161406	1.1766387698366458	0.18688160454314803	1.044185059555358	1.5776265545952566	0.1596877129998356	0.8353969989306995	1.6527076101669542	0.1135585933951103	0.8990435202205151	1.653335790212562	0.20450437274037309	1.1699473586237947	1.6473665864322078	0.28421520150785107	0.4398902075035168	0.2530533427513855	0.28170784498319934	0.3232151350703754	0.04108040189586044	0.2765195938932042	0.3082058541207147	0.1827496838306062	0.4431286459876442	0.49565275214691884	0.302073660111594	0.4779968563893414	0.5218430829049697	0.5648602962121227	0.3365280301114408	0.4783707455006752	0.7818891920293491	0.23288455822852985	0.47900291474657775	0.8417484865715156	0.22808726949119199	0.5010067871461124	0.8812026953702983	0.25344272200609413	0.5161839317495741	0.8811636310383487	0.11995819227534239	0.5103675819896154	0.28377284989423923	0.08665039422301289	0.5258077557447935	0.5264918936314189	0.17931536474321766	0.48980281340279086	0.7530000394002881	0.23170184411067127	0.4833761939634171	0.8183038299257348	0.2364554126979692	0.49689919769541474	0.869209920636201	0.23886189860885734	0.4987529811095092	0.8659664842661173
3	0.05084745762711865	0.3837466002168496	0.621050318841262	0.7295557844115512	0.36047636864012744	0.8304356025714313	1.1832745315965123	0.3312215040054151	1.0671124366984714	1.5972794655849258	0.29890253285492974	0.8510006689214595	1.6739635436926728	0.3734217897616821	0.8624922674782917	1.6663649218843541	0.31986824315294665	1.1521657766461402	1.6325098054552163	0.16899865304243916	0.682305453095081	0.724563045020913	0.18420878237228097	0.83021795569208	1.176702763796746	0.1858504805350628	1.045370958146316	1.5816461300228957	0.15968245807317583	0.8353364204948742	1.652685633522205	0.11265180254572228	0.9007709512781531	1.6573459986977608	0.20437709413896862	1.1695175715431376	1.6472667366557268	0.2841820350637909	0.43992961745329184	0.2530946867692431	0.28176662209767217	0.32309327327533516	0.0410930424903791	0.27356291015873774	0.32010427957933435	0.17952449927047143	0.4429593577057774	0.49626208794039667	0.3055855318832123	0.47806251573183434	0.5219316834585666	0.5647464309480266	0.33656449681409967	0.47844578024989315	0.7817975717073242	0.23649803084900087	0.4908861847846526	0.8413220797465271	0.22811493269123528	0.5010832273226581	0.8811849863658614	0.2533537637926522	0.5162913925177537	0.8810533189778181	0.12015609358455491	0.5096691496576106	0.28065842837467475	0.08683817871479069	0.5264409128232362	0.530029210568617	0.17936779851004664	0.4897331056085792	0.7530598721908465	0.23190006683559705	0.4838400635232701	0.8212914943797083	0.23653015866030427	0.4969263224470501	0.8691462049617416	0.23952066849461226	0.501253741907883	0.8698973231768461
4	0.06779661016949153	0.38371688637150647	0.6210393313262462	0.7296339479215549	0.3612527166581228	0.8289571175721061	1.1791743813255031	0.33125071220512964	1.0670694916454564	1.5972477638958278	0.30823973460897575	0.8473053757891569	1.668871511266927	0.3735491269206578	0.8624486266279001	1.6662520566362296	0.3199622122938344	1.1523140106734853	1.6325239668524778	0.16543666360140594	0.668877413813438	0.7257621412389706	0.18424878660078234	0.8300939467073575	1.176642551757404	0.1867944525817839	1.043853206947613	1.5774490173410753	0.1597223070739048	0.8353376569686369	1.6526239257269328	0.11333583668015129	0.8992358733436924	1.648813771268479	0.20429512931444246	1.1695333924936369	1.6474085378262386	0.284213966567249	0.4399421704849496	0.25308107068665137	0.28172160830725823	0.32319598046746645	0.04109685073244398	0.27642539688307843	0.308071845853032	0.18281274181314933	0.44298384592951395	0.4962188633685422	0.305538217496053	0.47807316962205965	0.5219768572726591	0.5647497493411414	0.33652185762174175	0.4783495424220344	0.7818595341729379	0.23289949491582793	0.4788855697855607	0.8418093475495856	0.22807689985072419	0.5010195228256616	0.8812113671409627	0.25334843575093263	0.5163144452134345	0.8810668753879679	0.12015500574916677	0.5096951002669192	0.28064996933213143	0.08667261770096345	0.5259006888124401	0.5264895978282456	0.17943999485024334	0.4899123470738437	0.7530118954744611	0.23187594113527701	0.48391159781306176	0.8213739260992389	0.23656607555170062	0.4970820579381626	0.8692501778590137	0.23934388617484523	0.49798721229584253	0.8620381571111035
5	0.0847457627118644	0.38373008561930927	0.6209581362762944	0.7296372305659957	0.360517937417333	0.8306078382060944	1.1837253195296586	0.331190016844276	1.0667923224550742	1.5972412097236486	0.308511270129038	0.8474063098483983	1.668698348314	0.3773388131511798	0.8459024609663406	1.6623690061335743	0.31981369338184423	1.1518952021007798	1.6324791434292982	0.16556794457452612	0.6690916998059864	0.7255780571064316	0.18348841621036788	0.8319095675466726	1.1801761907078974	0.18668336502140268	1.0490050104320279	1.5862882908899032	0.15866925605998336	0.836923289840541	1.656597465808453	0.1126101593860103	0.9004547526816304	1.6571839232046217	0.20445040959573615	1.1691203925653166	1.6469639743323319	0.28422451999651843	0.43993217850973154	0.2530752462476438	0.28174464824801176	0.323063132557689	0.041076315729296174	0.273515701310891	0.32007809563539286	0.1795493050076718	0.4431623310381828	0.4955600145758432	0.3020608295399845	0.4780794640476078	0.5219129262102835	0.5647840243876053	0.3365483542055692	0.47845991508754154	0.7818538314120868	0.23295900070402226	0.4790826641266636	0.8420549008579225	0.22812938392404739	0.5010975678206722	0.8811440181314709	0.2534993157024584	0.5162208112162208	0.8810556925652316	0.12015782969132222	0.5096604555578401	0.280657054437846	0.0868565997895686	0.5265825801364169	0.5300203727165462	0.1794321697860786	0.4900332684721244	0.7528969773018902	0.231800369105427	0.483770878429898	0.8213153447143661	0.23648870905604225	0.496785961587195	0.8692360845146795	0.23946962584993645	0.4978905759447875	0.8619939367855439
6	0.1016949152542373	0.38389895256300854	0.6214158389364905	0.7332125245955506	0.3612614095338896	0.8289508370480422	1.1792364343921806	0.331101582343629	1.067260434723103	1.5971454049658398	0.3047857332537908	0.864855533915248	1.6724937995192786	0.37417879038616625	0.8632907424875729	1.665943701666862	0.3198259360051546	1.1521318011718007	1.6324277016553321	0.16544334322245013	0.6684175372534105	0.725896226133108	0.180207149929672	0.8464053362352785	1.1779195385239347	0.1868539687751232	1.0434109769332742	1.5772335691197226	0.1596865954179346	0.8355969762108486	1.6527259426307281	0.11320465038360329	0.8998438320408547	1.6491089138232677	0.2011817626730936	1.1546575977625353	1.6439462199766568	0.28426501499674384	0.4399933889631937	0.2530785930987931	0.28171591254923906	0.32317046643106145	0.041076549838697574	0.2764786902591158	0.3081684232428018	0.18273624888915332	0.44317636587529047	0.4970024050643951	0.309321769197815	0.4781626506236643	0.522339872625766	0.5645861306204323	0.336632460760076	0.47854476553477054	0.7817182028160438	0.23650505227852267	0.49132756695223356	0.8413671038224773	0.23155372532202928	0.5126172310032739	0.8809411366155151	0.25361970994725663	0.515854952697035	0.8810671565504691	0.11995921203549871	0.5102987827001457	0.2837581914081906	0.08677573934961287	0.5262157452932421	0.5299341235493141	0.1795153667142893	0.4896175836221698	0.7529930085976424	0.23208546909839822	0.49238791881813454	0.8209740663104586	0.2327948461863434	0.4962571353197106	0.8691936588610658	0.24000902041594568	0.5087477035427743	0.8614635085407863
